<mxfile host="app.diagrams.net" agent="Mozilla/5.0 (Windows NT 10.0; Win64; x64) AppleWebKit/537.36 (KHTML, like Gecko) Chrome/135.0.0.0 Safari/537.36" version="26.2.14">
  <diagram name="Страница — 1" id="Jycsi8X8oNPBfbnjdnuH">
    <mxGraphModel dx="929" dy="783" grid="1" gridSize="10" guides="1" tooltips="1" connect="1" arrows="1" fold="1" page="1" pageScale="1" pageWidth="827" pageHeight="1169" math="0" shadow="0">
      <root>
        <mxCell id="0" />
        <mxCell id="1" parent="0" />
        <mxCell id="i86HIvdv7KfWA0NkZ1CL-2" value="Animal" style="swimlane;whiteSpace=wrap;html=1;" vertex="1" parent="1">
          <mxGeometry x="580" y="200" width="200" height="200" as="geometry" />
        </mxCell>
        <mxCell id="i86HIvdv7KfWA0NkZ1CL-3" value="- name" style="text;html=1;align=center;verticalAlign=middle;resizable=0;points=[];autosize=1;strokeColor=none;fillColor=none;" vertex="1" parent="i86HIvdv7KfWA0NkZ1CL-2">
          <mxGeometry x="69" y="38" width="60" height="30" as="geometry" />
        </mxCell>
        <mxCell id="i86HIvdv7KfWA0NkZ1CL-6" value="+ makeSound()" style="text;html=1;align=center;verticalAlign=middle;resizable=0;points=[];autosize=1;strokeColor=none;fillColor=none;" vertex="1" parent="i86HIvdv7KfWA0NkZ1CL-2">
          <mxGeometry x="44" y="98" width="110" height="30" as="geometry" />
        </mxCell>
        <mxCell id="i86HIvdv7KfWA0NkZ1CL-4" value="- age" style="text;html=1;align=center;verticalAlign=middle;resizable=0;points=[];autosize=1;strokeColor=none;fillColor=none;" vertex="1" parent="1">
          <mxGeometry x="645" y="268" width="50" height="30" as="geometry" />
        </mxCell>
        <mxCell id="i86HIvdv7KfWA0NkZ1CL-7" value="+ eat ()" style="text;html=1;align=center;verticalAlign=middle;resizable=0;points=[];autosize=1;strokeColor=none;fillColor=none;" vertex="1" parent="1">
          <mxGeometry x="640" y="338" width="60" height="30" as="geometry" />
        </mxCell>
        <mxCell id="i86HIvdv7KfWA0NkZ1CL-15" style="edgeStyle=orthogonalEdgeStyle;rounded=0;orthogonalLoop=1;jettySize=auto;html=1;entryX=0.5;entryY=1;entryDx=0;entryDy=0;" edge="1" parent="1" source="i86HIvdv7KfWA0NkZ1CL-13" target="i86HIvdv7KfWA0NkZ1CL-2">
          <mxGeometry relative="1" as="geometry" />
        </mxCell>
        <mxCell id="i86HIvdv7KfWA0NkZ1CL-13" value="DomestecAnimal" style="swimlane;whiteSpace=wrap;html=1;" vertex="1" parent="1">
          <mxGeometry x="360" y="480" width="200" height="200" as="geometry">
            <mxRectangle x="440" y="480" width="130" height="30" as="alternateBounds" />
          </mxGeometry>
        </mxCell>
        <mxCell id="i86HIvdv7KfWA0NkZ1CL-18" value="- ownerName" style="text;html=1;align=center;verticalAlign=middle;resizable=0;points=[];autosize=1;strokeColor=none;fillColor=none;" vertex="1" parent="i86HIvdv7KfWA0NkZ1CL-13">
          <mxGeometry x="50" y="38" width="100" height="30" as="geometry" />
        </mxCell>
        <mxCell id="i86HIvdv7KfWA0NkZ1CL-19" value="+ play()" style="text;html=1;align=center;verticalAlign=middle;resizable=0;points=[];autosize=1;strokeColor=none;fillColor=none;" vertex="1" parent="i86HIvdv7KfWA0NkZ1CL-13">
          <mxGeometry x="70" y="90" width="60" height="30" as="geometry" />
        </mxCell>
        <mxCell id="i86HIvdv7KfWA0NkZ1CL-17" style="edgeStyle=orthogonalEdgeStyle;rounded=0;orthogonalLoop=1;jettySize=auto;html=1;entryX=0.5;entryY=1;entryDx=0;entryDy=0;" edge="1" parent="1" source="i86HIvdv7KfWA0NkZ1CL-14" target="i86HIvdv7KfWA0NkZ1CL-2">
          <mxGeometry relative="1" as="geometry" />
        </mxCell>
        <mxCell id="i86HIvdv7KfWA0NkZ1CL-14" value="PackAnimal" style="swimlane;whiteSpace=wrap;html=1;" vertex="1" parent="1">
          <mxGeometry x="790" y="480" width="200" height="200" as="geometry" />
        </mxCell>
        <mxCell id="i86HIvdv7KfWA0NkZ1CL-20" value="- loadCapacity" style="text;html=1;align=center;verticalAlign=middle;resizable=0;points=[];autosize=1;strokeColor=none;fillColor=none;" vertex="1" parent="i86HIvdv7KfWA0NkZ1CL-14">
          <mxGeometry x="60" y="38" width="100" height="30" as="geometry" />
        </mxCell>
        <mxCell id="i86HIvdv7KfWA0NkZ1CL-21" value="+ carryLoad()" style="text;html=1;align=center;verticalAlign=middle;resizable=0;points=[];autosize=1;strokeColor=none;fillColor=none;" vertex="1" parent="i86HIvdv7KfWA0NkZ1CL-14">
          <mxGeometry x="60" y="90" width="100" height="30" as="geometry" />
        </mxCell>
        <mxCell id="i86HIvdv7KfWA0NkZ1CL-36" style="edgeStyle=orthogonalEdgeStyle;rounded=0;orthogonalLoop=1;jettySize=auto;html=1;" edge="1" parent="1" source="i86HIvdv7KfWA0NkZ1CL-23">
          <mxGeometry relative="1" as="geometry">
            <mxPoint x="450" y="680" as="targetPoint" />
            <Array as="points">
              <mxPoint x="290" y="720" />
              <mxPoint x="451" y="720" />
            </Array>
          </mxGeometry>
        </mxCell>
        <mxCell id="i86HIvdv7KfWA0NkZ1CL-23" value="Dog" style="rounded=0;whiteSpace=wrap;html=1;" vertex="1" parent="1">
          <mxGeometry x="230" y="760" width="120" height="60" as="geometry" />
        </mxCell>
        <mxCell id="i86HIvdv7KfWA0NkZ1CL-33" style="edgeStyle=orthogonalEdgeStyle;rounded=0;orthogonalLoop=1;jettySize=auto;html=1;" edge="1" parent="1" source="i86HIvdv7KfWA0NkZ1CL-24">
          <mxGeometry relative="1" as="geometry">
            <mxPoint x="450" y="680" as="targetPoint" />
          </mxGeometry>
        </mxCell>
        <mxCell id="i86HIvdv7KfWA0NkZ1CL-24" value="Cat" style="rounded=0;whiteSpace=wrap;html=1;" vertex="1" parent="1">
          <mxGeometry x="390" y="760" width="120" height="60" as="geometry" />
        </mxCell>
        <mxCell id="i86HIvdv7KfWA0NkZ1CL-35" style="edgeStyle=orthogonalEdgeStyle;rounded=0;orthogonalLoop=1;jettySize=auto;html=1;entryX=0.5;entryY=1;entryDx=0;entryDy=0;" edge="1" parent="1" source="i86HIvdv7KfWA0NkZ1CL-25" target="i86HIvdv7KfWA0NkZ1CL-13">
          <mxGeometry relative="1" as="geometry">
            <Array as="points">
              <mxPoint x="610" y="720" />
              <mxPoint x="450" y="720" />
              <mxPoint x="450" y="680" />
            </Array>
          </mxGeometry>
        </mxCell>
        <mxCell id="i86HIvdv7KfWA0NkZ1CL-25" value="Hamster" style="rounded=0;whiteSpace=wrap;html=1;" vertex="1" parent="1">
          <mxGeometry x="550" y="760" width="120" height="60" as="geometry" />
        </mxCell>
        <mxCell id="i86HIvdv7KfWA0NkZ1CL-37" style="edgeStyle=orthogonalEdgeStyle;rounded=0;orthogonalLoop=1;jettySize=auto;html=1;entryX=0.5;entryY=1;entryDx=0;entryDy=0;" edge="1" parent="1" source="i86HIvdv7KfWA0NkZ1CL-27" target="i86HIvdv7KfWA0NkZ1CL-14">
          <mxGeometry relative="1" as="geometry">
            <Array as="points">
              <mxPoint x="750" y="720" />
              <mxPoint x="910" y="720" />
              <mxPoint x="910" y="680" />
            </Array>
          </mxGeometry>
        </mxCell>
        <mxCell id="i86HIvdv7KfWA0NkZ1CL-27" value="Horse" style="rounded=0;whiteSpace=wrap;html=1;" vertex="1" parent="1">
          <mxGeometry x="690" y="760" width="120" height="60" as="geometry" />
        </mxCell>
        <mxCell id="i86HIvdv7KfWA0NkZ1CL-38" style="edgeStyle=orthogonalEdgeStyle;rounded=0;orthogonalLoop=1;jettySize=auto;html=1;" edge="1" parent="1" source="i86HIvdv7KfWA0NkZ1CL-28">
          <mxGeometry relative="1" as="geometry">
            <mxPoint x="910" y="680" as="targetPoint" />
          </mxGeometry>
        </mxCell>
        <mxCell id="i86HIvdv7KfWA0NkZ1CL-28" value="Camel" style="rounded=0;whiteSpace=wrap;html=1;" vertex="1" parent="1">
          <mxGeometry x="850" y="760" width="120" height="60" as="geometry" />
        </mxCell>
        <mxCell id="i86HIvdv7KfWA0NkZ1CL-39" style="edgeStyle=orthogonalEdgeStyle;rounded=0;orthogonalLoop=1;jettySize=auto;html=1;" edge="1" parent="1" source="i86HIvdv7KfWA0NkZ1CL-29">
          <mxGeometry relative="1" as="geometry">
            <mxPoint x="910" y="680" as="targetPoint" />
            <Array as="points">
              <mxPoint x="1070" y="720" />
              <mxPoint x="911" y="720" />
            </Array>
          </mxGeometry>
        </mxCell>
        <mxCell id="i86HIvdv7KfWA0NkZ1CL-29" value="Donkey" style="rounded=0;whiteSpace=wrap;html=1;" vertex="1" parent="1">
          <mxGeometry x="1010" y="760" width="120" height="60" as="geometry" />
        </mxCell>
      </root>
    </mxGraphModel>
  </diagram>
</mxfile>
